<svg width="96" height="95" viewBox="0 0 96 95" fill="none" xmlns="http://www.w3.org/2000/svg">
<g clip-path="url(#clip0_1641_905)">
<path d="M36.849 45.6216C31.8269 49.3882 25.5494 51.4807 19.2719 49.3882C14.2498 47.2957 10.4833 42.6921 8.39081 37.6701C6.71681 33.4851 5.8798 28.8816 2.11328 25.952C7.97231 21.3485 15.9239 19.256 22.6199 23.8595C25.5494 25.5335 28.0604 28.0446 29.3159 30.9741C31.4084 35.9961 32.6639 41.8551 36.849 45.6216Z" fill="#0E0F10"/>
<path d="M43.125 29.7185C42.288 32.2296 41.0325 35.1591 41.451 38.0886C33.081 38.0886 25.5479 30.974 24.7109 22.604C24.7109 18.419 25.9664 14.6525 28.059 10.8859C29.733 7.53792 30.57 3.7714 30.9885 0.00488281C40.1955 0.841887 48.5656 8.79343 47.3101 18.419C46.4731 22.604 45.2175 26.3705 43.125 29.7185Z" fill="#0E0F10"/>
<path d="M57.3549 31.8111C54.4254 33.0666 51.9143 33.9036 49.8218 36.4146C45.2183 30.9741 43.9628 23.0225 46.8923 16.745C48.5663 13.8155 51.0773 10.886 54.0069 9.63045C59.4474 7.53794 64.8879 5.86393 69.4914 2.09741C74.932 7.95644 75.769 17.1635 70.7469 23.8595C67.3989 28.0445 62.3769 30.1371 57.3549 31.8111Z" fill="#0E0F10"/>
<path d="M95.4358 30.5555C95.0173 37.6701 89.9953 43.9476 83.7177 46.4586C79.5327 47.7141 74.9292 47.2956 71.1627 45.6216C66.5591 43.5291 61.9556 41.0181 56.9336 41.0181C57.7706 33.4851 63.2111 25.952 71.1627 24.6965C77.8587 23.8595 83.2992 27.626 89.1583 29.7185C91.2508 30.137 93.3433 30.974 95.4358 30.5555Z" fill="#0E0F10"/>
<path d="M38.5212 53.9917C38.5212 61.1063 33.4992 67.3838 26.8031 69.8948C20.1071 71.9873 13.8296 68.2208 7.55204 65.7098C5.45953 64.8728 2.94851 64.4543 0.4375 64.4543C0.856002 58.1768 4.62252 51.8992 10.4816 49.3882C17.5961 46.4587 24.7106 49.3882 30.9882 52.7362C33.4992 53.9917 36.0102 53.9917 38.5212 53.9917Z" fill="#0E0F10"/>
<path d="M48.5655 78.2648C45.636 83.7053 39.3585 86.6349 33.4995 88.3089C30.5699 89.1459 28.4774 91.2384 26.3849 92.9124C20.9444 87.8904 19.6889 79.1018 23.8739 72.8243C24.7109 71.9873 25.1294 70.7318 25.9664 69.8948C29.3144 66.5468 33.918 64.8727 38.5215 63.1987C41.0325 62.3617 43.962 61.1062 46.0545 58.5952C50.658 64.0357 51.9136 71.9873 48.5655 78.2648Z" fill="#0E0F10"/>
<path d="M64.8879 95.0048C57.3549 94.5863 50.2404 89.5643 48.5663 81.6128C48.1478 77.4278 48.1478 73.2427 50.2404 69.4762C52.3329 65.7097 54.0069 61.1062 54.4254 56.9211C62.3769 57.3396 69.4915 62.7802 70.747 70.7317C71.584 77.4278 68.2359 82.8683 65.7249 88.7273C65.3064 90.8198 64.4694 92.9123 64.8879 95.0048Z" fill="#0E0F10"/>
<path d="M63.6309 56.9212C62.7939 54.4102 61.5384 52.7362 60.2829 50.6437C59.8643 50.2252 59.0273 49.8067 59.0273 49.3882C63.2124 44.7847 70.3269 43.9477 76.1859 45.6217C79.9525 46.8772 82.882 49.3882 84.9745 52.7362C88.3225 58.1767 88.741 64.8728 93.3445 69.0578C88.3225 73.6613 81.208 74.9168 74.9304 72.4058C68.2344 69.8948 65.7234 63.1988 63.6309 56.9212Z" fill="#0E0F10"/>
<path d="M36.849 45.6216C31.8269 49.3882 25.5494 51.4807 19.2719 49.3882C14.2498 47.2957 10.4833 42.6921 8.39081 37.6701C6.71681 33.4851 5.8798 28.8816 2.11328 25.952C7.97231 21.3485 15.9239 19.256 22.6199 23.8595C25.5494 25.5335 28.0604 28.0446 29.3159 30.9741C31.4084 35.9961 32.6639 41.8551 36.849 45.6216Z" fill="#3EA2FF"/>
<path d="M43.125 29.7185C42.288 32.2296 41.0325 35.1591 41.451 38.0886C33.081 38.0886 25.5479 30.974 24.7109 22.604C24.7109 18.419 25.9664 14.6525 28.059 10.8859C29.733 7.53792 30.57 3.7714 30.9885 0.00488281C40.1955 0.841887 48.5656 8.79343 47.3101 18.419C46.4731 22.604 45.2175 26.3705 43.125 29.7185Z" fill="#3EBFFF"/>
<path d="M57.3549 31.8111C54.4254 33.0666 51.9143 33.9036 49.8218 36.4146C45.2183 30.9741 43.9628 23.0225 46.8923 16.745C48.5663 13.8155 51.0773 10.886 54.0069 9.63045C59.4474 7.53794 64.8879 5.86393 69.4914 2.09741C74.932 7.95644 75.769 17.1635 70.7469 23.8595C67.3989 28.0445 62.3769 30.1371 57.3549 31.8111Z" fill="#3EF2FF"/>
<path d="M65.7221 43.1106C63.2111 41.8551 59.8631 41.0181 56.9336 41.0181C57.7706 33.4851 63.2111 25.952 71.1627 24.6965C77.8587 23.8595 83.2992 27.626 89.1583 29.7185C91.2508 30.137 93.3433 30.974 95.4358 30.5555C95.0173 37.6701 89.9953 43.9476 83.7177 46.4586C77.4402 48.5511 71.1627 46.0401 65.7221 43.1106Z" fill="#3EBFFF"/>
<path d="M93.3445 69.0578C88.3225 73.6613 81.208 74.9168 74.9304 72.4058C67.3974 69.4763 65.3049 61.5248 62.7939 54.8287C62.3754 53.1547 61.1199 52.3177 60.2829 50.6437C59.8643 50.2252 59.0273 49.8067 59.0273 49.3882C63.2124 44.7847 70.3269 43.9477 76.1859 45.6217C79.9525 46.8772 82.882 49.3882 84.9745 52.7362C88.3225 58.1767 88.741 64.8728 93.3445 69.0578Z" fill="#3EA2FF"/>
<path d="M64.8879 95.0048C57.3549 94.5863 50.2404 89.5643 48.5663 81.6128C48.1478 77.4278 48.1478 73.2427 50.2404 69.4762C52.3329 65.7097 54.0069 61.1062 54.4254 56.9211C62.3769 57.3396 69.4915 62.7802 70.747 70.7317C71.584 77.4278 68.2359 82.8683 65.7249 88.7273C65.3064 90.8198 64.4694 92.9123 64.8879 95.0048Z" fill="#3EBFFF"/>
<path d="M48.5655 78.2648C45.636 83.7053 39.3585 86.6349 33.4995 88.3089C30.5699 89.1459 28.4774 91.2384 26.3849 92.9124C20.9444 87.8904 19.6889 79.1018 23.8739 72.8243C24.7109 71.9873 25.1294 70.7318 25.9664 69.8948C29.3144 66.5468 33.918 64.8727 38.5215 63.1987C41.0325 62.3617 43.962 61.1062 46.0545 58.5952C50.658 64.0357 51.9136 71.9873 48.5655 78.2648Z" fill="#3EF2FF"/>
<path d="M30.1512 52.3177C32.6622 53.5732 35.5917 53.9917 38.5212 53.9917C38.5212 61.1063 33.4992 67.3838 26.8031 69.8948C20.1071 71.9873 13.8296 68.2208 7.55204 65.7098C5.45953 64.8728 2.94851 64.4543 0.4375 64.4543C0.856002 58.1768 4.62252 51.8992 10.4816 49.3882C17.1776 46.4587 24.2921 48.5512 30.1512 52.3177Z" fill="#3EBFFF"/>
</g>
<defs>
<clipPath id="clip0_1641_905">
<rect width="95" height="95" fill="white" transform="translate(0.4375 0.00488281)"/>
</clipPath>
</defs>
</svg>
