<svg width="95" height="95" viewBox="0 0 95 95" fill="none" xmlns="http://www.w3.org/2000/svg">
<g clip-path="url(#clip0_1647_973)">
<path d="M46.4841 17.4257C45.2813 19.9975 44.8021 22.8626 44.9782 25.718C44.3817 27.2533 43.6678 28.7201 42.7975 30.1086C41.9761 32.5631 40.7538 35.4283 41.1547 38.2934C37.0868 38.2934 33.2046 36.5724 30.2514 33.8246C28.0317 31.771 26.3302 29.1601 25.4305 26.2656C25.1079 25.2584 24.8927 24.2121 24.7852 23.1462C24.7852 19.0587 26.0173 15.3722 28.061 11.6954C29.7038 8.41951 30.5155 4.73294 30.9262 1.05615C39.1207 1.78955 46.6405 8.30216 46.9926 16.5652C46.8166 16.8487 46.6503 17.1421 46.4841 17.4257Z" stroke="white" stroke-width="2.5" stroke-miterlimit="10"/>
<path d="M69.8087 24.378C69.4958 24.7692 69.1731 25.1408 68.8113 25.4928C65.6528 26.324 62.9636 28.1722 60.8905 30.6071C59.5313 31.1742 58.1232 31.6827 56.715 32.1521C53.8499 33.3842 51.3954 34.1959 49.3517 36.6601C46.7408 33.57 45.2251 29.6585 44.9806 25.7177C44.8046 22.8623 45.2838 19.9972 46.4865 17.4254C46.6528 17.1418 46.819 16.8485 46.995 16.5649C48.6183 14.0029 50.8674 11.568 53.4392 10.463C58.7588 8.41922 64.0784 6.7764 68.5766 3.09961C73.906 8.82992 74.7176 17.8263 69.8087 24.378Z" stroke="white" stroke-width="2.5" stroke-miterlimit="10"/>
<path d="M93.9527 30.9302C93.542 37.8829 88.633 44.0239 82.492 46.4784C81.1523 46.8793 79.7638 47.1042 78.3752 47.1726C77.368 46.5566 76.2923 46.0481 75.1287 45.6569C73.0556 45.0702 70.8261 44.7964 68.6161 44.9138C64.6459 43.0656 60.6269 41.1587 56.3047 41.1587C56.7252 37.3646 58.3484 33.5607 60.8909 30.6075C62.964 28.1726 65.6531 26.3245 68.8116 25.4933C69.2712 25.3759 69.7406 25.2782 70.2198 25.1999C76.7617 24.3785 82.0911 28.0651 87.8116 30.1088C89.8652 30.5195 91.9089 31.3312 93.9527 30.9302Z" stroke="white" stroke-width="2.5" stroke-miterlimit="10"/>
<path d="M36.6567 45.6567C33.4102 48.0916 29.6161 49.8224 25.6459 50.106C23.6217 50.2624 21.5389 50.0375 19.4658 49.3432C18.6835 49.0205 17.9305 48.6294 17.2167 48.1796C13.4225 45.8522 10.5574 42.0092 8.82655 37.8826C7.19351 33.7951 6.3721 29.2871 2.69531 26.422C8.41585 21.9238 16.1997 19.88 22.7416 24.3782C23.6999 24.9161 24.5996 25.5517 25.4308 26.2655C26.3304 29.16 28.0319 31.7709 30.2517 33.8244C31.826 38.088 33.2439 42.5861 36.6567 45.6567Z" stroke="white" stroke-width="2.5" stroke-miterlimit="10"/>
<path d="M48.1209 77.5843C48.0622 77.6919 48.0036 77.8092 47.9253 77.9168C45.0015 83.0213 38.9974 85.8082 33.3844 87.4021C30.5193 88.2235 28.4755 90.2673 26.4318 91.9003C21.1122 86.9914 19.8801 78.3959 23.9773 72.2549C24.701 71.5313 25.1019 70.485 25.757 69.6929C26.1189 69.6147 26.4807 69.5169 26.8425 69.3995C29.6294 68.3434 32.1425 66.6224 34.0787 64.4515H34.0885C35.4673 63.8746 36.8852 63.3563 38.3031 62.8478C40.7576 62.0264 43.6227 60.8041 45.6665 58.3496C48.1405 61.2734 49.6268 64.9405 49.9104 68.6759C50.1549 71.7366 49.5975 74.8267 48.1209 77.5843Z" stroke="white" stroke-width="2.5" stroke-miterlimit="10"/>
<path d="M38.3017 53.8417C38.3017 57.8314 36.6882 61.5473 34.0871 64.4516H34.0773C32.1412 66.6225 29.628 68.3435 26.8411 69.3996C26.4793 69.517 26.1175 69.6147 25.7557 69.693C19.6049 71.0424 13.8061 67.6199 8.01712 65.3023C5.96359 64.4809 3.50914 64.0702 1.05469 64.0702C1.46539 57.939 5.15196 51.798 10.8823 49.3435C13.0043 48.4732 15.1164 48.131 17.2189 48.1798C17.9327 48.6297 18.6857 49.0208 19.468 49.3435C21.541 50.0378 23.6239 50.2627 25.6481 50.1062C27.4572 50.8396 29.2271 51.71 30.9286 52.6194C33.383 53.8417 35.8375 53.8417 38.3017 53.8417Z" stroke="white" stroke-width="2.5" stroke-miterlimit="10"/>
<path d="M91.9081 68.5783C86.9992 73.0765 80.0368 74.3086 73.9056 71.8542C72.2236 71.2186 70.8155 70.3189 69.6127 69.2335C68.8402 65.7718 66.904 62.848 64.2833 60.6967C63.7553 59.3766 63.2957 58.0369 62.8556 56.707C62.0342 54.2525 60.8021 52.6195 59.5798 50.566C59.1691 50.165 58.3477 49.7543 58.3477 49.3436C60.9683 46.4687 64.7429 45.0997 68.6153 44.9139C70.8253 44.7965 73.0548 45.0703 75.1279 45.6571C76.2916 46.0482 77.3672 46.5567 78.3744 47.1728C80.5453 48.5222 82.325 50.3802 83.7234 52.6195C86.9992 57.9391 87.4099 64.481 91.9081 68.5783Z" stroke="white" stroke-width="2.5" stroke-miterlimit="10"/>
<path d="M64.8977 87.8126C64.487 89.8563 63.6656 91.9001 64.0763 93.9536C56.7129 93.5429 49.7505 88.6242 48.1174 80.8501C48.0197 79.8723 47.9414 78.8944 47.9219 77.9165C48.0001 77.809 48.0588 77.6916 48.1174 77.584C49.594 74.8265 50.1514 71.7364 49.9069 68.6854C51.892 65.0478 53.4468 60.6962 53.8478 56.7065C57.7397 56.9119 61.4165 58.3396 64.2816 60.6962C66.9023 62.8476 68.8385 65.7714 69.611 69.233C69.6892 69.5557 69.7577 69.8784 69.8066 70.2109C70.628 76.7626 67.3521 82.0823 64.8977 87.8126Z" stroke="white" stroke-width="2.5" stroke-miterlimit="10"/>
</g>
<defs>
<clipPath id="clip0_1647_973">
<rect width="94.9902" height="95" fill="white" transform="translate(0.0078125)"/>
</clipPath>
</defs>
</svg>
