<svg width="89" height="88" viewBox="0 0 89 88" fill="none" xmlns="http://www.w3.org/2000/svg">
<g clip-path="url(#clip0_1780_671)">
<path d="M0 58.7734L0 87.917H29.1436L29.1436 58.7734H0Z" fill="white"/>
<path d="M58.3711 58.7735V29.6299L29.2275 29.6299L29.2275 58.7735H58.3711Z" fill="white"/>
<path d="M88 29.1436V0L58.8564 0V29.1436L88 29.1436Z" fill="white"/>
<path d="M81 84.0059V84.6023H82.0807V87.4271H82.8184V84.6023H83.8991V84.0059H81Z" fill="white"/>
<path d="M85.5063 84.0059H84.5859V87.4271H85.3098V85.192H85.3391L86.2527 87.4104H86.7456L87.6591 85.2003H87.6884V87.4271H88.4123V84.0059H87.4919L86.5198 86.3045H86.4784L85.5063 84.0059Z" fill="white"/>
</g>
<defs>
<clipPath id="clip0_1780_671">
<rect width="89" height="88" fill="white"/>
</clipPath>
</defs>
</svg>
