<svg width="64" height="65" viewBox="0 0 64 65" fill="none" xmlns="http://www.w3.org/2000/svg">
<path d="M27.2 46.1531C21.3268 45.3131 19.1975 40.7919 18.2685 33.3609C18.225 33.0131 18.1842 32.659 18.1457 32.2986L9.6 32.2523L0 64.5H27.2V46.1531Z" fill="white"/>
<path fill-rule="evenodd" clip-rule="evenodd" d="M29.3333 46.2958C39.789 46.2958 53.3333 36.2825 53.3333 23.9304C53.3333 11.5784 41.6 0.00463517 26.1332 0.524635C22.4004 1.04489 17.0673 10.9273 17.6002 23.9304C17.7262 27.0041 17.8792 29.8023 18.1457 32.2986C18.1842 32.659 18.225 33.0131 18.2685 33.3609C19.1975 40.7919 21.3268 45.3131 27.2 46.1531C27.8623 46.2478 28.5722 46.2958 29.3333 46.2958ZM26.6667 42.1347C29.3176 42.1347 31.4667 33.7514 31.4667 23.4102C31.4667 13.069 29.3176 4.68572 26.6667 4.68572C24.0157 4.68572 21.8667 13.069 21.8667 23.4102C21.8667 33.7514 24.0157 42.1347 26.6667 42.1347Z" fill="white"/>
<path d="M27.2 46.1531L37.3333 64.5H64L53.8667 46.2957L29.3333 46.2958C28.5722 46.2958 27.8623 46.2478 27.2 46.1531Z" fill="white"/>
</svg>
