<svg width="66" height="65" viewBox="0 0 66 65" fill="none" xmlns="http://www.w3.org/2000/svg">
<path d="M18.7259 12.8713H35.4591L28.2877 24.9505C28.0885 25.5545 27.8096 27.004 28.2877 27.9703C28.7658 28.9366 31.2758 32.3993 32.471 34.0099C33.0687 34.6139 34.5029 35.4594 35.4591 34.0099C36.4153 32.5604 43.8257 19.3135 47.4114 12.8713H65.9375C65.9375 9.24752 64.0251 2 56.3757 2H12.7497L18.7259 12.8713Z" fill="#F8CF00"/>
<path d="M30.679 47.297C31.0774 47.901 32.2327 49.1089 33.667 49.1089C35.1013 49.1089 36.2567 47.901 36.6551 47.297L52.7907 18.9109H64.743L42.0336 58.7723C41.0376 60.1815 37.9699 63 33.667 63C29.3642 63 26.2964 60.1815 25.3004 58.7723L1.99342 17.703C1.1966 15.8911 0.0810488 11.5426 1.99342 8.64356C3.90579 5.74455 5.57936 4.21452 6.17672 3.81188L30.679 47.297Z" fill="white"/>
</svg>
